<svg id="Layer_3" enable-background="new 0 0 64 64" height="512" viewBox="0 0 64 64" width="512" xmlns="http://www.w3.org/2000/svg"><g><g><path d="m34 8v-6h-4v6" fill="#8892a0"/></g><g><path d="m46 18c0-5.523-4.477-10-10-10h-8c-5.523 0-10 4.477-10 10" fill="#c7e2fc"/></g><g><path d="m21 58h22v4h-22z" fill="#a1cdfb"/></g><g><path d="m45 18h-26c-3.314 0-6 2.686-6 6h38c0-3.314-2.686-6-6-6z" fill="#a1cdfb"/></g><g><path d="m49 24h-34l4 34h26z" fill="#c7e2fc"/></g><g><path d="m18.167 50.916c.605.051 1.215.084 1.833.084 12.15 0 22-10.074 22-22.5 0-1.541-.152-3.046-.441-4.5h-26.559z" fill="#ebf7fe"/></g><g><circle cx="32" cy="40" fill="#c16b3f" r="10"/></g><g><path d="m40 35c0-.355-.02-.706-.053-1.053-1.827-2.395-4.702-3.947-7.947-3.947-5.523 0-10 4.477-10 10 0 1.487.333 2.893.915 4.161 1.743 1.16 3.834 1.839 6.085 1.839 6.075 0 11-4.925 11-11z" fill="#e39854"/></g><g><path d="m43 63h-22c-.553 0-1-.448-1-1v-4c0-.552.447-1 1-1h22c.553 0 1 .448 1 1v4c0 .552-.447 1-1 1zm-21-2h20v-2h-20z"/></g><g><path d="m45 59h-26c-.507 0-.934-.379-.993-.883l-4-34c-.033-.284.056-.568.246-.781.189-.214.462-.336.747-.336h34c.285 0 .558.122.747.335.19.213.279.498.246.781l-4 34c-.059.505-.486.884-.993.884zm-25.11-2h24.22l3.765-32h-31.75z"/></g><g><path d="m51 25h-38c-.553 0-1-.448-1-1 0-3.86 3.141-7 7-7h26c3.859 0 7 3.14 7 7 0 .552-.447 1-1 1zm-36.899-2h35.799c-.465-2.279-2.484-4-4.899-4h-26.001c-2.415 0-4.435 1.721-4.899 4z"/></g><g><path d="m47 18h-2c0-4.962-4.037-9-9-9h-8c-4.963 0-9 4.038-9 9h-2c0-6.065 4.935-11 11-11h8c6.065 0 11 4.935 11 11z"/></g><g><path d="m19 53h26v2h-26z"/></g><g><path d="m35 8h-2v-5h-2v5h-2v-6c0-.552.447-1 1-1h4c.553 0 1 .448 1 1z"/></g><g><path d="m32 51c-6.065 0-11-4.935-11-11s4.935-11 11-11 11 4.935 11 11-4.935 11-11 11zm0-20c-4.963 0-9 4.038-9 9s4.037 9 9 9 9-4.038 9-9-4.037-9-9-9z"/></g><g><path d="m32.99 35.141-1.98-.282.264-1.849c.49-3.427 3.47-6.01 6.931-6.01h.795v2h-.796c-2.472 0-4.601 1.846-4.95 4.293z"/></g><g><path d="m32 36c-1.534 0-3.036-.622-4.121-1.707l-.586-.586 1.414-1.414.586.586c.713.712 1.699 1.121 2.707 1.121s1.994-.409 2.707-1.121l.586-.586 1.414 1.414-.586.586c-1.085 1.085-2.587 1.707-4.121 1.707z"/></g><g><path d="m29.666 46.602c-.863-.306-1.648-.771-2.333-1.384l1.334-1.49c.489.438 1.05.771 1.667.989z"/></g><g><path d="m32 47v-2c2.757 0 5-2.243 5-5h2c0 3.86-3.141 7-7 7z"/></g></g></svg>